<svg width="167" height="44" viewBox="0 0 167 44" fill="none" xmlns="http://www.w3.org/2000/svg">
<path d="M27.0637 22.496L32.6432 26.816L27.4165 31.872H17.7005L27.0637 22.496ZM29.9176 15.264L26.711 12.128H18.7586L26.8072 18.368L29.9176 15.264ZM15.4879 13.536V29.664L24.5947 20.576L15.4879 13.536ZM44.0908 21.984C44.0908 34.144 34.2145 43.968 22.0614 43.968C9.90841 43.968 0 34.144 0 21.984C0 9.824 9.87634 0 22.0294 0C34.1824 0 44.0908 9.856 44.0908 21.984ZM36.6194 26.624C36.5874 26.176 36.3629 25.76 36.0102 25.472L29.3084 20.288L33.2525 16.352C33.5411 16.064 33.7014 15.648 33.7014 15.232C33.7014 14.816 33.5411 14.4 33.2204 14.112L28.4105 9.408C28.1219 9.12 27.7371 8.96 27.3203 8.96H13.9167C13.0509 8.96 12.3454 9.664 12.3454 10.528V33.408C12.3454 33.472 12.3454 33.504 12.3454 33.568C12.3454 33.6 12.3454 33.632 12.3454 33.632C12.3454 33.664 12.3454 33.696 12.3775 33.728V33.76V33.792C12.4096 33.856 12.4096 33.952 12.4416 34.016C12.4416 34.048 12.4737 34.048 12.4737 34.08C12.4737 34.112 12.5058 34.112 12.5058 34.144C12.5058 34.144 12.5058 34.176 12.5378 34.176C12.5378 34.208 12.5699 34.208 12.5699 34.24C12.5699 34.272 12.602 34.272 12.602 34.272L12.634 34.304C12.634 34.336 12.6661 34.336 12.6661 34.368L12.6982 34.4C12.7302 34.432 12.7623 34.464 12.7623 34.496L12.7944 34.528C12.8264 34.56 12.8585 34.592 12.8906 34.592L12.9226 34.624L12.9547 34.656L12.9868 34.688C13.0509 34.72 13.0829 34.752 13.1471 34.784C13.1791 34.784 13.1791 34.816 13.2112 34.816C13.2433 34.816 13.2433 34.848 13.2753 34.848C13.3074 34.848 13.3395 34.88 13.3395 34.88C13.3715 34.88 13.4036 34.912 13.4036 34.912C13.4357 34.912 13.4677 34.912 13.4677 34.944C13.596 34.976 13.7243 34.976 13.8525 34.976H27.9937C28.4105 34.976 28.7953 34.816 29.0839 34.528L36.0743 27.776C36.4591 27.488 36.6194 27.072 36.6194 26.624Z" fill="url(#paint0_linear_2_50)"/>
<path d="M51.7867 9.98401H54.9292V19.328C56.2759 18.336 57.7189 17.856 59.2581 17.856C61.2782 17.856 62.9136 18.624 64.1962 20.128C65.4789 21.632 66.1202 23.584 66.1202 25.952C66.1202 28.48 65.3506 30.528 63.8435 32.032C62.3364 33.536 60.2842 34.304 57.751 34.304C56.7249 34.304 55.6667 34.208 54.5123 33.984C53.39 33.76 52.4921 33.504 51.8188 33.152V9.98401H51.7867ZM54.9292 22.304V30.848C55.9873 31.168 57.0776 31.328 58.232 31.328C59.6108 31.328 60.7652 30.848 61.631 29.856C62.4967 28.864 62.9457 27.616 62.9457 26.048C62.9457 24.48 62.5288 23.2 61.7272 22.208C60.8934 21.216 59.8353 20.736 58.5206 20.736C57.302 20.768 56.1156 21.28 54.9292 22.304Z" fill="white"/>
<path d="M81.6081 26.368H70.4491C70.5453 27.872 71.0263 29.088 71.9883 29.984C72.9182 30.88 74.1367 31.328 75.6118 31.328C77.664 31.328 79.5879 30.688 81.3195 29.408V32.48C80.3575 33.12 79.3955 33.568 78.4656 33.856C77.5357 34.144 76.4134 34.272 75.1308 34.272C73.3992 34.272 71.9883 33.92 70.898 33.184C69.8078 32.448 68.942 31.488 68.3007 30.272C67.6594 29.056 67.3387 27.648 67.3387 26.048C67.3387 23.648 68.0121 21.696 69.3909 20.192C70.7698 18.688 72.5334 17.92 74.7139 17.92C76.8303 17.92 78.4977 18.656 79.7483 20.128C80.9989 21.6 81.6402 23.552 81.6402 26.016V26.368H81.6081ZM70.5453 24.48H78.5298C78.4336 23.232 78.0808 22.272 77.4075 21.6C76.7341 20.928 75.8362 20.576 74.7139 20.576C73.5916 20.576 72.6617 20.928 71.9562 21.6C71.2187 22.272 70.7698 23.232 70.5453 24.48Z" fill="white"/>
<path d="M93.4726 18.176H96.9998L85.7767 42.048H82.2815L87.6686 30.592L81.544 18.176H85.1033L89.3681 27.104L93.4726 18.176Z" fill="white"/>
<path d="M105.337 18.144C107.742 18.144 109.762 18.912 111.333 20.48C112.937 22.048 113.738 23.968 113.738 26.336C113.738 28.608 112.937 30.496 111.301 32.032C109.666 33.568 107.646 34.304 105.177 34.304C102.804 34.304 100.816 33.536 99.2124 32C97.6091 30.464 96.8074 28.544 96.8074 26.272C96.8074 23.968 97.6091 22.016 99.2124 20.48C100.848 18.912 102.9 18.144 105.337 18.144ZM105.145 20.96C103.637 20.96 102.419 21.44 101.457 22.432C100.495 23.424 100.014 24.672 100.014 26.208C100.014 27.712 100.495 28.96 101.489 29.92C102.483 30.88 103.734 31.36 105.305 31.36C106.844 31.36 108.095 30.88 109.089 29.92C110.083 28.96 110.564 27.712 110.564 26.208C110.564 24.704 110.051 23.456 109.025 22.464C107.998 21.472 106.684 20.96 105.145 20.96Z" fill="white"/>
<path d="M119.606 18.176V20.192C121.017 18.656 122.589 17.856 124.384 17.856C125.378 17.856 126.276 18.112 127.142 18.624C127.976 19.136 128.649 19.84 129.066 20.736C129.515 21.632 129.739 23.04 129.739 24.96V34.016H126.597V24.992C126.597 23.392 126.34 22.208 125.859 21.536C125.378 20.832 124.545 20.48 123.39 20.48C121.915 20.48 120.665 21.216 119.606 22.688V33.984H116.4V18.176H119.606Z" fill="white"/>
<path d="M143.945 9.98401H147.087V33.984H140.385C138.044 33.984 136.185 33.248 134.774 31.776C133.363 30.304 132.689 28.32 132.689 25.824C132.689 23.488 133.427 21.6 134.87 20.096C136.345 18.592 138.205 17.856 140.481 17.856C141.54 17.856 142.694 18.08 143.912 18.528V9.98401H143.945ZM143.945 31.328V21.312C142.983 20.832 141.988 20.576 140.994 20.576C139.423 20.576 138.205 21.088 137.275 22.112C136.345 23.136 135.896 24.512 135.896 26.24C135.896 27.872 136.313 29.12 137.114 30.016C137.595 30.528 138.108 30.912 138.654 31.072C139.199 31.264 140.161 31.36 141.572 31.36H143.945V31.328Z" fill="white"/>
<path d="M152.955 18.176V17.216C152.955 14.688 153.5 12.768 154.59 11.52C155.681 10.272 156.963 9.63202 158.502 9.63202C159.144 9.63202 159.945 9.72802 160.843 9.95202V13.024C160.33 12.832 159.849 12.736 159.4 12.736C158.182 12.736 157.316 13.056 156.835 13.728C156.354 14.368 156.13 15.552 156.13 17.216V18.176H158.951V20.992H156.13V33.984H152.955V20.992H150.678V18.176H152.955Z" fill="#0046EE"/>
<path d="M165.108 11.52C165.621 11.52 166.07 11.712 166.423 12.064C166.776 12.416 166.968 12.864 166.968 13.376C166.968 13.888 166.776 14.304 166.423 14.688C166.07 15.04 165.621 15.232 165.108 15.232C164.627 15.232 164.21 15.04 163.826 14.688C163.473 14.304 163.28 13.888 163.28 13.376C163.28 12.896 163.473 12.48 163.826 12.096C164.21 11.712 164.627 11.52 165.108 11.52ZM163.569 18.176H166.711V33.984H163.569V18.176Z" fill="#0046EE"/>
<defs>
<linearGradient id="paint0_linear_2_50" x1="6.45608" y1="37.5513" x2="37.5645" y2="6.37864" gradientUnits="userSpaceOnUse">
<stop stop-color="#0046EE"/>
<stop offset="1" stop-color="#00DBFF"/>
</linearGradient>
</defs>
</svg>
